<svg id="Livello_1" data-name="Livello 1" xmlns="http://www.w3.org/2000/svg" viewBox="0 0 340.16 355.68"><defs><style>.cls-1{fill:#575757;}.cls-2{fill:#ffdc73;}.cls-3{fill:#ffcf40;}.cls-4{fill:#ffbf00;}.cls-5{fill:#464646;}.cls-6{fill:#606060;}</style></defs><title>cappelloOro</title><g id="Cappello"><path class="cls-1" d="M219.83,213.59c2.37-2.92,2.74-6.69,4.26-10,15.29-33.39,47.65-53.05,84.28-51a49.64,49.64,0,0,1,4.94.77c1.07,1.2.87,2.36,0,3.6-1.06,1.54-2.1,3.11-3.28,4.55-1.81,2.2-2.21,4.94-3.14,7.49-1.35,1-2.94,1-4.48.95-30.65-.5-56.18,20-64.94,46.93-6.07,18.67-4,36.6,5,53.91,1.14,2.22,3.08,4.14,3,6.91-2.18,3.88-5.22,7.17-7.6,10.93a3.29,3.29,0,0,1-3.07,1.64c-12.63-16.19-18.27-34.67-18-55.08,0-.85.44-1.78-.36-2.52Z" transform="translate(-216.46 -136.08)"/><path class="cls-1" d="M375.78,137.94A76.22,76.22,0,0,1,392,136.62c1.49,0,3.09.48,4.48-.54l12.52,2.2c1.45,1.7.38,3.06-.55,4.49-2.31,3.52-5.32,6.55-7.26,10.34a2.73,2.73,0,0,1-2.93,1.11c-10.21-1.18-20.16.29-30,2.79a8.09,8.09,0,0,1-3.28.45c-1.9-.64-3.13-2.23-2-3.82C366.83,148.1,369.32,141.37,375.78,137.94Z" transform="translate(-216.46 -136.08)"/><path class="cls-1" d="M400.42,152.52c.32-2.81,2.38-4.63,3.82-6.8,1.62-2.46,3.93-4.48,4.78-7.44l7.9,1.4c4.26,2.77,9.49,3.3,13.83,5.91,2.25,1.35,4.91,2,6.88,3.84.17,1.69-.8,3-1.7,4.18-2.37,3.21-3.95,7-7.25,9.56-4.62-1.21-8.65-3.9-13.25-5.22-3.94-1.13-7.88-2.26-11.83-3.36C402.32,154.23,401,154,400.42,152.52Z" transform="translate(-216.46 -136.08)"/><path class="cls-1" d="M544.71,224.63A77.61,77.61,0,0,1,556,257.51c4.55,38.8-16.66,74.82-53,89.4-5.42,2.17-7.42,4.93-8.35,10.44-6,35.49-12.37,70.91-18.6,106.35-2.38,13.5-9.79,22.64-23,26.78a28.7,28.7,0,0,1-13.55.83c-20.31-3.5-40.59-7.17-60.88-10.77a2.36,2.36,0,0,1-.15-3.07c2.77-4.07,5.11-8.48,9-11.68,7.64.86,15.14,2.53,22.7,3.8,10,1.67,20,3.67,30.09,4.6,11,1,17.11-3.54,19.09-14.38,1.2-6.56,2.34-13.14,3.48-19.72.3-1.75.65-3.53-.41-5.17-3.91-2.86-8.5-3.78-13.13-4.63-11.89-2.21-23.86-4-35.69-6.47-1.79-1.15-1.33-2.59-.42-4,2.53-3.86,4.84-7.91,8.38-11,2.5-.37,4.84.55,7.25.88,8.15,1.11,16.11,3.35,24.42,3.61,2.79.09,5.63,1.12,8.49,1.52,4.49.63,5.57-.14,6.43-4.94,3.69-20.73,7.67-41.41,10.81-62.21,1.27-8.45,5-12.56,13.18-15.17,23.07-7.39,38-23.35,44.77-46.6,4.59-15.69,3-31-3.41-46-.67-1.57-2.06-3-1.31-5,2.54-2.93,4.33-6.42,6.8-9.41C541.15,222.83,541.61,222.77,544.71,224.63Z" transform="translate(-216.46 -136.08)"/><path class="cls-1" d="M234.82,290.3c3-4.35,5.6-9,9.59-12.59,1.54-.43,2.5.37,3.37,1.5a79.79,79.79,0,0,0,16.31,15.47c3.19,2.35,5.12,5.45,5,9.58-6.44,23.5-8.91,47.76-13.74,71.56-5.56,8.47-11.35,16.77-17.22,25-1,1.37-2.22,2.29-3.83.71,1.94-11.19,3.86-22.39,5.83-33.58,3.42-19.42,6.83-38.85,10.36-58.25.43-2.4,0-3.88-2-5.39A69.86,69.86,0,0,1,234.82,290.3Z" transform="translate(-216.46 -136.08)"/><path class="cls-1" d="M234.32,401.56c1.66-.14,2.33-1.43,3.16-2.62q7.05-10.21,14.17-20.37a4.18,4.18,0,0,1,2.5-2c8.47,4,17.55,5.58,26.68,7.11a121.28,121.28,0,0,1,14.1,2.7c1.45,1.22.92,2.66.2,3.89-2.37,4.1-4.84,8.15-8.69,11.1-6.94-.67-13.7-2.41-20.59-3.35a36.64,36.64,0,0,0-12.14,0c-1.54.85-1.94,2.35-2.22,3.9-1.39,7.74-2.85,15.47-4.07,23.23-1.18,7.55,2.78,13.79,10.06,16.23,2.54.74,5.34.81,7.34,2.91a2.92,2.92,0,0,1,.24,3.66c-2.17,3.17-4.2,6.45-6.52,9.52-.65.87-1.65,1-2.5,1.52a31.5,31.5,0,0,1-25.52-36.34C231.67,415.55,233.05,408.57,234.32,401.56Z" transform="translate(-216.46 -136.08)"/><path class="cls-1" d="M483.91,183.43a83.69,83.69,0,0,1,27,8.81,2.59,2.59,0,0,1-.16,3.35c-2.56,3.31-4.4,7.12-7.21,10.25-1.43.88-2.79.32-4.14-.22-3.26-1.31-6.47-2.72-9.72-4.05-2.42-1-5-2.49-7.4.1-.82,1.44-.26,2.84.11,4.22a93.6,93.6,0,0,1,2.37,39c-.94,6.11-6.25,10.08-11.88,8.78-3.76-.87-6.39-4.18-6.92-8.45-.43-3.5.67-6.84.85-10.29a96.86,96.86,0,0,0-1.87-23.23c1.1-5.43,4.23-9.79,7.35-14.2,2.61-3.7,5.36-7.29,7.79-11.12A6.51,6.51,0,0,1,483.91,183.43Z" transform="translate(-216.46 -136.08)"/><path class="cls-1" d="M387.12,466.61c-1,3.59-3.7,6.16-5.69,9.15-1,1.55-1.92,3.18-2.87,4.78l-61.92-10.92a2.15,2.15,0,0,1-.12-2.76c2.52-3.6,4.64-7.49,7.67-10.73a3,3,0,0,1,2.59-1.19C345.89,458.18,365,461.64,384,465,385.21,465.2,386.52,465.25,387.12,466.61Z" transform="translate(-216.46 -136.08)"/><path class="cls-1" d="M325.87,455.81l-9.23,13.81L256,458.92a87.17,87.17,0,0,1,6.84-10.68A29.84,29.84,0,0,0,264.6,445c1.14-1.17,2.5-.65,3.77-.43q27,4.72,54.08,9.54C323.72,454.36,325.18,454.34,325.87,455.81Z" transform="translate(-216.46 -136.08)"/><path class="cls-1" d="M503.14,205.23c.91-3.78,3.51-6.57,5.63-9.65.75-1.08,1.41-2.22,2.12-3.34a80.16,80.16,0,0,1,33.82,32.39c-2.3-.54-3.58.75-5,2.39-2.2,2.66-3,6.48-6.7,7.89-1.71.58-2.48-.62-3.14-1.77-5.91-10.41-14.3-18.31-24.44-24.5C504.27,207.9,502.39,207.41,503.14,205.23Z" transform="translate(-216.46 -136.08)"/><path class="cls-1" d="M483.91,183.43c-4.46,6.51-8.84,13.07-13.4,19.5-1.91,2.69-3.47,5.43-3.82,8.75-1.87.33-2.27-1.1-2.63-2.35a79.52,79.52,0,0,0-13-26.05c-.71-.95-1.48-2-1.23-3.34.59-4.8,3.8-8.14,6.54-11.73a3.48,3.48,0,0,1,2.77-1.62,79.39,79.39,0,0,1,10.56,13.65,4.12,4.12,0,0,0,4,2.28A35.69,35.69,0,0,1,483.91,183.43Z" transform="translate(-216.46 -136.08)"/><path class="cls-1" d="M459.11,166.59c-1.2,2.65-3.18,4.76-4.85,7.08a16,16,0,0,0-3.17,6.84c-1.43.67-2.37-.28-3.2-1.12-5.3-5.4-10.82-10.53-17.3-14.51-1-.62-1.71-1.44-1.32-2.75,0-.44-.26-1-.06-1.3,2.65-3.92,4.72-8.26,8.42-11.4A79,79,0,0,1,459.11,166.59Z" transform="translate(-216.46 -136.08)"/><path class="cls-1" d="M375.78,137.94q-5.22,7.27-10.43,14.56c-.82,1.15-1.92,2.33-.49,3.8.71,2.09-1.06,2.38-2.25,2.9a84.13,84.13,0,0,0-15.22,8.3c-16.25,11.68-26.82,27.07-30.94,46.75a14,14,0,0,1-3.16,6.91,9.22,9.22,0,0,1-11.28,2c-3.41-1.89-5.5-7.12-4.55-11.38,3.07-13.86,8.15-26.82,17-38.11.72-.92,1.42-1.78.49-2.94-1.35-1.08-2.89-.41-4.34-.5-1.63-.11-3.41.17-4-2-1.8-1.08-1.39-2.24-.46-3.82,2.22-3.78,5.49-6.88,7.15-11a53.64,53.64,0,0,1,15.23,3.44,5.23,5.23,0,0,0,5.74-1,92,92,0,0,1,39.53-17.69C374.46,138.06,375.12,138,375.78,137.94Z" transform="translate(-216.46 -136.08)"/><path class="cls-2" d="M306.62,168.23c3.18,1.42,6.74.06,9.93,1.4.77,1.69-.18,2.51-1.58,3a12.18,12.18,0,0,1-3.29.54c-22.64,1.78-38.77,13.7-49.51,33C251.69,225,250,245,256.44,265.64a59.37,59.37,0,0,0,19.64,29.26c4.78,3.85,6.65,8.12,5.41,14.54-4.3,22.31-8,44.74-12,67.11-.37,2-.15,4.67-3.18,5.17-3.19-.54-6.35-1.25-9.55-1.63-2.25-.27-2.62-1.2-2.23-3.3,2-11,3.91-21.91,5.84-32.87q3.31-18.75,6.6-37.49a10.52,10.52,0,0,0,.42-3.62,8.14,8.14,0,0,0-3.21-6,89.27,89.27,0,0,1-19.75-19.1c-4.26-7.57-8.18-15.25-10.17-23.82-8.77-37.75,15.08-75.79,52.89-84.18A75,75,0,0,1,306.62,168.23Z" transform="translate(-216.46 -136.08)"/><path class="cls-3" d="M267,381.39c4.32-24.45,8.53-48.93,13-73.34.9-4.87-.48-8.23-4.11-11.09a59.87,59.87,0,0,1-16.33-19.59,73.82,73.82,0,0,1-7.8-44.64c2-15.56,7.9-29.43,18.59-41s23.76-18.9,39.81-20.18c2.2-.18,4.82.57,6.37-1.94,3.15.17,1.79,1.61.79,2.88a90.49,90.49,0,0,0-15.62,29.67c-1,3.29-1.83,6.65-2.55,10-1.1,5.14,1.15,9.21,5.51,10.26s8.14-1.23,9.44-6.23c1.69-6.47,3.25-12.94,6.14-19,8.79-18.54,22.72-31.63,41.63-39.47,1-.43,2-1,3-1.45,10.64-3.16,21.44-5,32.6-3.87,1,.1,2,.06,3,.09a89.34,89.34,0,0,1,28.85,9.61,90.93,90.93,0,0,1,21.82,18.38,90,90,0,0,1,15.6,31.17c1.2,7.66,2.3,15.33,1.71,23.12-.23,3.11-.75,6.2-.83,9.3-.12,4.57,2.52,7.72,6.57,8.26a7.46,7.46,0,0,0,8.53-6.25,80.22,80.22,0,0,0,1.11-23.61,137.32,137.32,0,0,0-4.72-23c.63-1.79,1.91-.61,2.75-.44,10.81,2.26,19.34,8.32,26.26,16.63,11.8,14.19,17.64,30.65,17.07,49.08-.82,26.15-11.71,47.16-33.15,62.44a48,48,0,0,1-13.41,6.7c-5.26,1.67-7.61,5.07-8.5,10.35-3.64,21.42-7.48,42.8-11.27,64.19-1.24,7-1.26,7-8.28,5.76-7.46-1.32-14.89-2.84-22.39-3.91-42.33-6-84.27-14.39-126.37-21.79-11.14-2-22.22-4.41-33.38-6.42C267.85,382,267.28,382,267,381.39Z" transform="translate(-216.46 -136.08)"/><path class="cls-4" d="M267,381.39q15.3,2.75,30.6,5.48l152.1,26.81c6.35,1.12,6.35,1.12,7.5-5.39,3.83-21.73,7.79-43.44,11.41-65.2.94-5.65,3.6-8.72,9-10.63,18.87-6.67,31.46-20.21,39.39-38.17,8.65-19.6,9-39.64.85-59.43-6.73-16.3-18.06-28.47-34.92-34.86-1.26-.48-2.47-1.08-3.85-.49.1-2,1.55-1,2.35-.88a67.6,67.6,0,0,1,18,5.16c1.22.5,2.46,1,3.69,1.44,9.39,5.51,17.87,12.08,24.26,21,2,2.8,3.78,5.76,5.66,8.64a78.1,78.1,0,0,1,7.85,27.77c2.51,32.37-18.32,63-49.62,71.93-6.55,1.87-9.4,5.17-10.47,11.82-3.6,22.43-7.82,44.75-11.64,67.15-.54,3.18-1.59,3.92-4.75,3.33-14.24-2.61-28.52-5-42.79-7.42a4.64,4.64,0,0,1-4.09.85c-22.66-4-45.37-7.63-67.93-12.16-16.52-2.35-32.88-5.63-49.32-8.48-1.9-.32-4.11-.28-5.14-2.5-12.69-2.27-25.36-4.6-38.07-6.77-2.48-.42-3.64-1.32-2.94-3.89l12.6-70.46c.2-1.09.41-2.18.62-3.27.55,1.68,0,3.31-.27,4.93q-5.89,33.48-11.82,66.94c-.79,4.49-.71,4.6,3.8,5.4C261.71,380.55,264.34,381,267,381.39Z" transform="translate(-216.46 -136.08)"/><path class="cls-1" d="M349.85,396.84l71.79,12.65c-1.51,3.87-4.52,6.79-6.56,10.32-.61,1.05-1.27,2.07-1.91,3.1a2.92,2.92,0,0,1-2.84.49c-22.81-4-45.66-7.86-68.42-12.17-1.35-.66-1.85-1.92-1.08-3C343.59,404.23,345.53,399.58,349.85,396.84Z" transform="translate(-216.46 -136.08)"/><path class="cls-4" d="M325.87,455.81,264.6,445c-2.6-.88-5.51-.59-8-2.07,2-2.19,4.31-.88,6.43-.44,1.47.3,2.84.85,4.36.43,14.2,2.79,28.49,5.13,42.75,7.65q56.58,10,113.19,20c1.54.27,3.07.57,4.61.79,6.77,1,11.5-1.66,14.06-8a44.77,44.77,0,0,0,2.6-9c1.14-6.58,2.26-13.17,3.51-19.74.33-1.72.51-3.58,2.31-4.59,5.14.66,10.32,1.12,15.24,2.93-1.68,9.43-3.32,18.87-5,28.3-2,10.83-9.65,16.29-20.53,14.45-17.69-3-35.35-6.09-53-9.14Z" transform="translate(-216.46 -136.08)"/><path class="cls-1" d="M341.38,410.24l71.79,12.67L450,429.42a1.15,1.15,0,0,1-.42,1.17c-1.58,1-3.26.47-4.87.21-6.6-1.07-13.18-2.28-19.76-3.44L275.52,401c-3-.52-5.93-1-8.86-1.7-3.93-.53-7.85-1.2-11.74-2-1.54-.31-3-.72-3.89-2.21,1.53-.76,3.06-.24,4.57,0q15.56,2.72,31.1,5.47c1.42-1.27,3.1-1.06,4.75-.78q22.89,3.9,45.74,8.06C338.84,408.18,340.5,408.53,341.38,410.24Z" transform="translate(-216.46 -136.08)"/><path class="cls-5" d="M450,430c0-.18.05-.37.08-.55l12.06,2.12c1.3.23,2.64.38,3.61,1.46l-15.16-2.7A.44.44,0,0,1,450,430Z" transform="translate(-216.46 -136.08)"/><path class="cls-1" d="M341.38,410.24,286.7,400.6c2.16-4.88,6.05-8.67,8.46-13.4l54.69,9.64c-1.44,3.91-4.21,7-6.55,10.32C342.61,408.15,342,409.21,341.38,410.24Z" transform="translate(-216.46 -136.08)"/><path class="cls-2" d="M251,395.11l15.77,2.77c1.57,1.6,1,3.52.7,5.34-1.23,7.44-2.51,14.86-3.91,22.26-1.11,5.83-.76,11.25,3.41,15.92.86,1,1.31,2.08.34,3.29L256.65,443c-6.18-1.17-12.35-9.74-11-17.27C247.51,415.5,249.25,405.3,251,395.11Z" transform="translate(-216.46 -136.08)"/><path class="cls-6" d="M470,317.79c-1.8,7.19-6.43,14.39-11.64,21.24a153.56,153.56,0,0,1-20.1,21.4c-4.24,3.78-8.55,4-11.85.64s-2.84-8.18,1.3-12.07c8.21-7.72,16.11-15.71,22.34-25.17a35.67,35.67,0,0,0,5-10.51c.92-3.51,2.68-6.4,6.65-7.09C467.39,305.23,471.68,310.35,470,317.79Z" transform="translate(-216.46 -136.08)"/><path class="cls-1" d="M286.69,283.12a7.67,7.67,0,0,1,8-6.71,7.34,7.34,0,0,1,7.19,8c-.73,13.8,4.83,25.85,10.18,38,1.3,2.95,3,5.74,4.18,8.73a7.59,7.59,0,0,1-3.71,9.91,7.39,7.39,0,0,1-10.06-3.27c-7.8-14.35-14.28-29.2-16-45.7A38.85,38.85,0,0,1,286.69,283.12Z" transform="translate(-216.46 -136.08)"/><path class="cls-1" d="M382.29,323.46c-1.26,7.13-2.42,14.27-3.8,21.37-1.26,6.46-6.23,9.39-11.33,6.87a7,7,0,0,1-4.18-6.32,20.75,20.75,0,0,1,.3-4.31q3.56-20.38,7.18-40.77c1.18-6.61,4.48-9.72,9.39-8.95s7.2,5,6,11.73S383.48,316.67,382.29,323.46Z" transform="translate(-216.46 -136.08)"/><path class="cls-3" d="M267.34,444.69a15.79,15.79,0,0,0-1.52-2.16c-4.08-4.16-5.23-9.18-4.27-14.76,1.7-10,3.49-19.93,5.25-29.89,1.54.23,3.08.43,4.61.7l173.94,30.7c1.53.27,3.07.46,4.61.69l.59.33c-1.54,8.78-3,17.58-4.68,26.33-.91,4.69-2.17,9.31-5.69,13a11.47,11.47,0,0,1-10.87,3.67Z" transform="translate(-216.46 -136.08)"/></g></svg>