<?xml version="1.0" encoding="utf-8"?>
<!-- Generator: Adobe Illustrator 23.0.0, SVG Export Plug-In . SVG Version: 6.00 Build 0)  -->
<svg version="1.1" id="Livello_1" xmlns="http://www.w3.org/2000/svg" xmlns:xlink="http://www.w3.org/1999/xlink" x="0px" y="0px"
	 viewBox="0 0 1000 1000" style="enable-background:new 0 0 1000 1000;" xml:space="preserve">
<style type="text/css">
	.st0{fill:#FFFFFF;}
</style>
<g>
	<g transform="translate(0.000000,512.000000) scale(0.100000,-0.100000)">
		<path class="st0" d="M4695.6,5000.4c-316-45.9-672.1-191.5-926.8-381.1c-582.1-432.8-890.4-1078.1-857.9-1788.5
			c21.1-444.3-11.5-371.5,1087.7-2564.1c538.1-1076.2,984.3-1962.8,991.9-1972.4c7.7-7.7,455.7,869.4,993.8,1947.5
			c720,1442,991.9,2004.9,1026.4,2123.7c270,928.7-164.7,1943.6-1026.4,2407.1C5603.3,4977.4,5122.6,5061.7,4695.6,5000.4z
			 M5279.6,3880.2c256.6-72.8,507.5-270,626.2-497.9c216.4-406,143.6-903.8-176.2-1223.6c-203-203-457.7-306.4-748.7-304.5
			c-645.3,5.7-1133.6,614.7-995.8,1239C4119.2,3690.6,4695.6,4042.9,5279.6,3880.2z"/>
		<path class="st0" d="M3173.2,753.1C2558.5,293.5,2144.9-355.6,1985.9-1100.5c-51.7-245.1-70.9-695.1-40.2-963.2
			C2093.2-3331.4,3010.4-4375,4249.4-4687.2c894.3-224.1,1834.5-38.3,2581.3,513.2c78.5,57.5,239.4,201.1,354.3,317.9
			c775.5,781.3,1070.4,1932.1,766,2989.2c-149.4,511.3-450,1011.1-825.3,1369.2C6982,638.2,6689,866.1,6656.5,866.1
			c-13.4,0-74.7-97.7-74.7-120.6c0-3.8,76.6-65.1,172.3-136c578.3-432.8,982.4-1074.3,1122.1-1786.6
			c24.9-118.7,34.5-266.2,34.5-505.6l1.9-337l-88.1-103.4c-116.8-137.9-187.7-243.2-327.5-490.2c-151.3-270-285.3-471.1-300.7-455.8
			c-5.7,7.7-11.5,168.5-11.5,360c0,302.6-3.8,358.1-36.4,421.3c-67,137.9-97.7,134-396.4-36.4c-101.5-57.4-214.5-109.1-250.9-114.9
			c-59.4-11.5-72.8-3.8-151.3,84.3c-103.4,114.9-208.7,304.5-208.7,377.2c0,28.7,57.5,203,126.4,388.7
			c70.9,183.8,134,361.9,143.6,394.5c28.7,101.5-13.4,256.6-135.9,501.7L6158.6-461l70.8,206.8c68.9,199.2,70.8,206.8,36.4,231.7
			c-19.2,15.3-40.2,26.8-46,26.8c-7.6,0-277.7-532.4-603.2-1181.5l-589.8-1183.4l-400.2,800.4l-400.2,798.5l-63.2-30.6
			c-126.4-67-323.6-206.8-361.9-258.5c-23-30.6-124.5-95.8-233.6-153.2c-168.5-86.2-208.7-99.6-308.3-101.5
			c-76.6,0-136,11.5-180,34.5c-57.4,30.7-78.5,30.7-191.5,11.5c-212.6-38.3-204.9-21.1-95.7-197.2c53.6-86.2,145.5-204.9,203-266.2
			c99.6-101.5,114.9-130.2,233.6-440.4l126.4-331.3l316-9.6l316-9.6l440.4-252.8c595.5-342.8,932.6-547.7,955.6-586
			c32.6-49.8-51.7-187.7-187.7-316c-149.4-137.9-371.5-285.3-700.9-465.3c-141.7-76.6-262.3-141.7-266.2-145.5
			c-5.8-3.8,19.1-63.2,51.7-132.1c34.5-70.9,59.4-130.2,55.5-136c-5.8-3.8-30.6,1.9-57.4,15.3c-38.3,17.2-55.5,47.9-80.4,149.4
			l-30.6,126.4l-193.4,114.9c-113,67-199.2,132.1-208.7,157c-7.7,23-9.6,114.9-3.8,204.9c9.6,135.9,5.7,172.3-21.1,212.5
			c-63.2,95.8-172.3,204.9-312.1,310.2c-88.1,65.1-160.9,139.8-193.4,195.3c-49.8,84.2-51.7,99.6-57.4,413.6
			c-5.8,306.4-9.6,327.5-49.8,373.4c-24.9,26.8-109.2,143.6-189.6,258.5c-80.4,116.8-199.2,270-262.4,342.8
			c-180,206.8-241.3,446.2-226,890.4c9.6,316,13.4,321.7,264.3,610.9c157,180,695.1,852.1,733.4,917.3
			c13.4,21.1-40.2,158.9-63.2,158.9C3378.1,904.4,3282.4,837.4,3173.2,753.1z"/>
	</g>
</g>
</svg>
